<svg width="14" height="17" viewBox="0 0 14 17" fill="none" xmlns="http://www.w3.org/2000/svg">
<path d="M12.4997 5.65831L13.258 4.90831C13.4149 4.75139 13.5031 4.53856 13.5031 4.31665C13.5031 4.09473 13.4149 3.8819 13.258 3.72498C13.1011 3.56806 12.8883 3.4799 12.6664 3.4799C12.4444 3.4799 12.2316 3.56806 12.0747 3.72498L11.3247 4.48331C10.1568 3.57986 8.72207 3.08968 7.24553 3.08968C5.76899 3.08968 4.33424 3.57986 3.16636 4.48331L2.40803 3.71665C2.25 3.55973 2.03612 3.47201 1.81342 3.47279C1.59072 3.47357 1.37745 3.56279 1.22053 3.72081C1.06361 3.87884 0.975892 4.09273 0.976674 4.31543C0.977455 4.53813 1.06667 4.75139 1.2247 4.90831L1.99136 5.66665C1.07721 6.83127 0.581189 8.26943 0.58303 9.74998C0.580308 10.8128 0.831749 11.8609 1.31638 12.8069C1.80102 13.7528 2.50479 14.5692 3.36902 15.1878C4.23325 15.8065 5.23288 16.2096 6.28454 16.3635C7.3362 16.5174 8.40941 16.4175 9.41466 16.0724C10.4199 15.7272 11.3281 15.1467 12.0634 14.3793C12.7987 13.6118 13.3399 12.6797 13.6418 11.6606C13.9437 10.6415 13.9975 9.56505 13.7988 8.52093C13.6002 7.47681 13.1547 6.49532 12.4997 5.65831V5.65831ZM7.2497 14.75C6.26079 14.75 5.29409 14.4567 4.47185 13.9073C3.6496 13.3579 3.00874 12.577 2.6303 11.6634C2.25186 10.7498 2.15284 9.74443 2.34577 8.77453C2.5387 7.80462 3.0149 6.91371 3.71416 6.21445C4.41343 5.51518 5.30434 5.03898 6.27425 4.84605C7.24415 4.65313 8.24948 4.75214 9.16311 5.13058C10.0767 5.50902 10.8576 6.14988 11.407 6.97213C11.9565 7.79437 12.2497 8.76107 12.2497 9.74998C12.2497 11.0761 11.7229 12.3478 10.7852 13.2855C9.84755 14.2232 8.57578 14.75 7.2497 14.75ZM5.58303 2.24998H8.91636C9.13738 2.24998 9.34934 2.16218 9.50562 2.0059C9.6619 1.84962 9.7497 1.63766 9.7497 1.41665C9.7497 1.19563 9.6619 0.983671 9.50562 0.827391C9.34934 0.67111 9.13738 0.583313 8.91636 0.583313H5.58303C5.36202 0.583313 5.15005 0.67111 4.99377 0.827391C4.83749 0.983671 4.7497 1.19563 4.7497 1.41665C4.7497 1.63766 4.83749 1.84962 4.99377 2.0059C5.15005 2.16218 5.36202 2.24998 5.58303 2.24998V2.24998ZM8.08303 7.24998C8.08303 7.02897 7.99523 6.817 7.83895 6.66072C7.68267 6.50444 7.47071 6.41665 7.2497 6.41665C7.02868 6.41665 6.81672 6.50444 6.66044 6.66072C6.50416 6.817 6.41636 7.02897 6.41636 7.24998V8.82498C6.22767 8.99375 6.09467 9.21584 6.03496 9.46185C5.97525 9.70786 5.99165 9.96621 6.08198 10.2027C6.17231 10.4392 6.33232 10.6427 6.54084 10.7862C6.74935 10.9298 6.99654 11.0067 7.2497 11.0067C7.50285 11.0067 7.75004 10.9298 7.95856 10.7862C8.16707 10.6427 8.32708 10.4392 8.41741 10.2027C8.50774 9.96621 8.52414 9.70786 8.46443 9.46185C8.40472 9.21584 8.27172 8.99375 8.08303 8.82498V7.24998Z" fill="#175EA8"/>
</svg>
